PathFileType	4	(X/Y/Z)	/Users/niels/Desktop/University/Third Semester/Perception and Action/Exam/Gymnastics Motion Tracking/Analyzed Videos/7Nov24/Kraftspring/Sequence 01_Sports2D/Sequence 01_Sports2D_px_person00.trc
DataRate	CameraRate	NumFrames	NumMarkers	Units	OrigDataRate	OrigDataStartFrame	OrigNumFrames
49.85207100591716	49.85207100591716	7	22	m	49.85207100591716	169	338
Frame#	Time	Hip			RHip			RKnee			RAnkle			RBigToe			RSmallToe			RHeel			LHip			LKnee			LAnkle			LBigToe			LSmallToe			LHeel			Neck			Head			Nose			RShoulder			RElbow			RWrist			LShoulder			LElbow			LWrist		
		X1	Y1	Z1	X2	Y2	Z2	X3	Y3	Z3	X4	Y4	Z4	X5	Y5	Z5	X6	Y6	Z6	X7	Y7	Z7	X8	Y8	Z8	X9	Y9	Z9	X10	Y10	Z10	X11	Y11	Z11	X12	Y12	Z12	X13	Y13	Z13	X14	Y14	Z14	X15	Y15	Z15	X16	Y16	Z16	X17	Y17	Z17	X18	Y18	Z18	X19	Y19	Z19	X20	Y20	Z20	X21	Y21	Z21	X22	Y22	Z22
169	3.390029673590504	1.034806018583266	-0.47449453968169014	0.0	1.0385368602620786	-0.4812262646830184	0.0	0.8877020677829036	-0.5454795134927267	0.0	0.7989506477829892	-0.40942180043704035	0.0	0.7255352730232165	-0.4148691765535894	0.0	0.7330130756282426	-0.4153991817723827	0.0	0.7904897851996252	-0.39947415097801997	0.0	1.0364811685001054	-0.4689482572665001	0.0	0.9309273603691822	-0.33832323673853265	0.0	1.0030630915448522	-0.2081748674853899	0.0	1.0255790938378284	-0.16484433583532201	0.0	1.0153079925860127	-0.17018260434505514	0.0	1.003564266997784	-0.1987267395766239	0.0	1.106114198543319	-0.6566166396316343	0.0	1.1796280389241363	-0.730692991422863	0.0	1.1187366042315268	-0.7187031965893331	0.0	1.096959471856281	-0.658706339511397	0.0	1.0428097843216448	-0.7333995404181929	0.0	1.0674124000429408	-0.8182594972547454	0.0	1.094619219672441	-0.6522954540211184	0.0	1.0403057545592531	-0.7210950235843295	0.0	1.0549917505424953	-0.7855572178343994	0.0
170	3.410089020771513	1.0440369304685235	-0.4740785130550215	0.0	1.0479331875404947	-0.48056221039986663	0.0	0.8944822167624624	-0.5380733594144379	0.0	0.8161583523472459	-0.3958566935634258	0.0	0.7470940492753517	-0.39675295357763357	0.0	0.7531253897585638	-0.3991917966671855	0.0	0.8086567868355439	-0.38634678257104543	0.0	1.0458952458251543	-0.4683677955535316	0.0	0.9422840710765374	-0.3374678633111393	0.0	1.0159336496285634	-0.20889566681697977	0.0	1.0386534235166216	-0.16508441640185317	0.0	1.0294650518385104	-0.17023702994515494	0.0	1.0168785341172777	-0.19973514759970099	0.0	1.109784213513526	-0.659397326270775	0.0	1.1825678644425561	-0.7347438476489925	0.0	1.1214578991801099	-0.7212108178866669	0.0	1.1017024520612062	-0.6615925504207956	0.0	1.0437394904919204	-0.7319681401935777	0.0	1.0668006970142494	-0.8172545356888496	0.0	1.0978254673062648	-0.6541372042535014	0.0	1.0412987232077073	-0.7201547813568442	0.0	1.0554686107348688	-0.7838051072744026	0.0
171	3.430148367952522	1.0532283508819975	-0.47381332836429085	0.0	1.0572465963316968	-0.4799879670864123	0.0	0.901122232925051	-0.5302678263546879	0.0	0.8336109067086589	-0.38329271199052517	0.0	0.769990290059831	-0.3794272686962501	0.0	0.7736955127769216	-0.3835325172700124	0.0	0.827072848273579	-0.3741883815684386	0.0	1.0552813940216017	-0.46793636750761863	0.0	0.9535702212296499	-0.33667367484876876	0.0	1.028370083298969	-0.2094173442519379	0.0	1.0489889401891899	-0.16475869669234303	0.0	1.0414303134418559	-0.16992327257755663	0.0	1.0298047939832236	-0.2005984767695308	0.0	1.1133751240768337	-0.6625196165230469	0.0	1.1854550743564547	-0.7389507361125344	0.0	1.1242496587063626	-0.7238159296324771	0.0	1.1067352472284375	-0.6646712613870219	0.0	1.0446419890531724	-0.7307517883250823	0.0	1.066472585885748	-0.8164257331194229	0.0	1.101261740806565	-0.656157166744698	0.0	1.0423865974650786	-0.7193834072271454	0.0	1.0562203429755428	-0.7819927026760964	0.0
172	3.450207715133531	1.0623470555159327	-0.47370668151429507	0.0	1.0664075235368364	-0.47953772416217677	0.0	0.9076411267628371	-0.5221406056071475	0.0	0.8511946679506258	-0.37165793731201446	0.0	0.7939094167015578	-0.3627569146368912	0.0	0.7945119083309149	-0.3681734666682456	0.0	0.8456511515408396	-0.3628559180298404	0.0	1.0645926076346237	-0.4676524944677837	0.0	0.9648182881692655	-0.3358704722325953	0.0	1.0404461370239995	-0.20971681205324988	0.0	1.057178943301378	-0.16398462208835665	0.0	1.0516599224999108	-0.16933888400393624	0.0	1.042408249119106	-0.20131169031316085	0.0	1.116887397579275	-0.6659744824643082	0.0	1.1882758157618916	-0.7432671779585633	0.0	1.127101871045826	-0.7265076009777095	0.0	1.1120630033432792	-0.6678352959916226	0.0	1.0456127322051532	-0.7297305598739956	0.0	1.066445349327692	-0.8157990635642034	0.0	1.1047735785064938	-0.6584116565599222	0.0	1.0433199081506908	-0.7188060002954987	0.0	1.056989122414294	-0.7802470948141863	0.0
173	3.47026706231454	1.0713280009338457	-0.473727843434287	0.0	1.075332875113081	-0.4791953980500369	0.0	0.914076516665563	-0.5137898563737131	0.0	0.8687967488887393	-0.3608577683404527	0.0	0.8184594502367285	-0.3466944135875775	0.0	0.8153787918467443	-0.35298016794868264	0.0	0.864322053926766	-0.35218538889306733	0.0	1.0737738721480439	-0.46747589662890704	0.0	0.9760664475477354	-0.3349886450564445	0.0	1.0522910484550123	-0.209797171499692	0.0	1.0639189210745115	-0.16293139099521936	0.0	1.060730152484544	-0.16857962747836264	0.0	1.054798013712359	-0.2018865511479424	0.0	1.1203261551421568	-0.6696916172168731	0.0	1.1909679142769536	-0.7476284280196871	0.0	1.12996007137509	-0.7292251083354048	0.0	1.1176112553494078	-0.6709660952739713	0.0	1.046703615971621	-0.7288532739885087	0.0	1.0666860159686395	-0.8153807447048428	0.0	1.1082737301261563	-0.6608873541057626	0.0	1.0439804071209717	-0.7184009148207893	0.0	1.0576355432294167	-0.7786822861183137	0.0
174	3.4903264094955486	1.0800490486748537	-0.47382046852786824	0.0	1.0838808310305372	-0.47890172210370374	0.0	0.9204593674495604	-0.5053355406547152	0.0	0.8862462708816627	-0.35083702660481986	0.0	0.8430582610220391	-0.33134556039323143	0.0	0.8360221244151452	-0.3380055013950569	0.0	0.8829368507981659	-0.34206115779926116	0.0	1.0827294953979514	-0.4673505645055251	0.0	0.9873003809888322	-0.33399084683274866	0.0	1.0640157378612243	-0.20969898009673626	0.0	1.069922186824517	-0.16182028931372253	0.0	1.0692528563334405	-0.16775262742354863	0.0	1.067061583037757	-0.20235411078632462	0.0	1.1237036776607348	-0.6735374360232032	0.0	1.1934128677904519	-0.751959685102414	0.0	1.1327328336918394	-0.7318685232783765	0.0	1.123197433074912	-0.6739319419174382	0.0	1.0479182287579996	-0.7280655868440955	0.0	1.0671253032980885	-0.8151696143598237	0.0	1.1117776464406437	-0.6635208985411144	0.0	1.044449164213973	-0.7181181982763969	0.0	1.0581847822947503	-0.7774309909377809	0.0
175	3.5103857566765577	1.0883947352673133	-0.4739317598830211	0.0	1.091906514953436	-0.47858808032227484	0.0	0.9268417689310878	-0.4968620879583935	0.0	0.9033728025535573	-0.3415266832001088	0.0	0.8669406183301119	-0.3168714411152181	0.0	0.8561169416173895	-0.3234062396687171	0.0	0.9012999574765204	-0.33239244494469117	0.0	1.0913728235148443	-0.467234700420647	0.0	0.9984874575494563	-0.33289332781523784	0.0	1.0757161312634897	-0.2094868434799853	0.0	1.0758293963324423	-0.16088703830240067	0.0	1.0777944184008563	-0.16697878278364886	0.0	1.079282630508366	-0.2027599543667313	0.0	1.1270505479735564	-0.6773433952992917	0.0	1.195479225088412	-0.7561893684454373	0.0	1.135326217352078	-0.734330423651276	0.0	1.1285859511825111	-0.6766031218482446	0.0	1.0492448666191359	-0.7273275677614683	0.0	1.067690760517436	-0.8151542092411608	0.0	1.115384110252889	-0.6662299722151903	0.0	1.0449643845837053	-0.7178931760846968	0.0	1.0587985365855745	-0.7766409279660844	0.0
